<?xml version="1.0" encoding="iso-8859-1"?>
<!-- Uploaded to: SVG Repo, www.svgrepo.com, Generator: SVG Repo Mixer Tools -->
<!DOCTYPE svg PUBLIC "-//W3C//DTD SVG 1.1//EN" "http://www.w3.org/Graphics/SVG/1.1/DTD/svg11.dtd">
<svg fill="#000000" version="1.1" id="Capa_1" xmlns="http://www.w3.org/2000/svg" xmlns:xlink="http://www.w3.org/1999/xlink" 
	 width="800px" height="800px" viewBox="0 0 457.569 457.569"
	 xml:space="preserve">
<g>
	<path d="M415.201,81.104H42.367C18.968,81.104,0,100.072,0,123.471v210.627c0,23.398,18.968,42.367,42.367,42.367h372.835
		c23.399,0,42.367-18.969,42.367-42.367V123.472C457.569,100.072,438.601,81.104,415.201,81.104z M67.662,170.66
		c0-14.288,11.582-25.87,25.87-25.87h24.756c14.288,0,25.87,11.582,25.87,25.87v24.756c0,14.288-11.582,25.87-25.87,25.87H93.532
		c-14.288,0-25.87-11.582-25.87-25.87V170.66z M195.289,308.209c0,4-3.242,7.242-7.241,7.242H76.399
		c-3.999,0-7.242-3.242-7.242-7.242v-22.027c0-4,3.243-7.242,7.242-7.242h111.648c3.999,0,7.241,3.242,7.241,7.242L195.289,308.209
		L195.289,308.209z M388.411,308.209c0,4-3.243,7.242-7.242,7.242H269.52c-3.998,0-7.24-3.242-7.24-7.242v-22.027
		c0-4,3.242-7.242,7.24-7.242h111.648c3.999,0,7.242,3.242,7.242,7.242L388.411,308.209L388.411,308.209z"/>
</g>
</svg>